<?xml version="1.0" encoding="utf-8"?>
<svg xmlns="http://www.w3.org/2000/svg" viewBox="0 0.0002 234.43 309.0406" width="234.43px" height="309.041px">
    <defs>
        <style>.cls-1{fill:#8f00ff;}</style>
    </defs>
    <g id="Layer_1-2" transform="matrix(1.0000000000000002, 0, 0, 1.0000000000000002, 0, 0)">
        <path class="cls-1" d="m217.52,217.59c7.94,3.56,16.91-2.25,16.91-10.95v-99.38c0-4.71-2.76-8.99-7.05-10.93L16.95,1.08C9.01-2.51,0,3.29,0,12.01v100.26c0,4.73,2.78,9.02,7.09,10.95l210.43,94.37Z"/>
        <path class="cls-1" d="m7.54,208.96c-4.56,1.82-7.54,6.23-7.54,11.14v76.93c0,8.41,8.43,14.21,16.28,11.21l139.14-53.16c9.98-3.81,10.38-17.79.63-22.16l-93.62-41.98c-2.97-1.33-6.35-1.4-9.37-.19l-45.52,18.21Z"/>
    </g>
</svg>